<svg width="25" height="25" viewBox="0 0 25 25" fill="none" xmlns="http://www.w3.org/2000/svg">
<rect width="24" height="24" transform="translate(0.5 0.159912)" fill="#E40422"/>
<path d="M6.5625 13.2224L5.875 12.5349C5.59375 12.2224 5.59375 11.7537 5.875 11.4724L11.9688 5.37866C12.25 5.09741 12.7188 5.09741 13 5.37866L19.0938 11.4724C19.375 11.7537 19.375 12.2224 19.0938 12.5349L18.4062 13.2224C18.0938 13.5037 17.625 13.5037 17.3125 13.1912L13.75 9.44116V18.4099C13.75 18.8474 13.4062 19.1599 13 19.1599H12C11.5625 19.1599 11.25 18.8474 11.25 18.4099V9.44116L7.65625 13.2224C7.34375 13.5037 6.875 13.5349 6.5625 13.2224Z" fill="white"/>
</svg>
